<svg width="50" height="50" viewBox="0 0 50 50" fill="none" xmlns="http://www.w3.org/2000/svg">
<path fill-rule="evenodd" clip-rule="evenodd" d="M13.0008 7.02288C13.7179 4.86061 16.0385 3.67504 18.2108 4.36125L42.9215 12.1673C44.6548 12.7148 45.8331 14.3227 45.8331 16.1404V41.6667C45.8331 43.9679 43.9675 45.8333 41.6665 45.8333H10.4167C8.11548 45.8333 6.25 43.9679 6.25 41.6667V16.6667C6.25 14.3655 8.11548 12.5 10.4167 12.5H11.1845L13.0008 7.02288ZM15.5743 12.5H30.1423L16.9557 8.3344L15.5743 12.5ZM10.4167 16.6667V22.9167H16.6665C20.1183 22.9167 22.9165 25.7148 22.9165 29.1667C22.9165 32.6183 20.1183 35.4167 16.6665 35.4167H10.4167V41.6667H41.6665V16.6667H10.4167ZM10.4167 31.25V27.0833H16.6665C17.8171 27.0833 18.7499 28.016 18.7499 29.1667C18.7499 30.3173 17.8171 31.25 16.6665 31.25H10.4167Z" fill="#F8F8F8"/>
</svg>
